<?xml version="1.0" standalone="no"?>
<!DOCTYPE svg PUBLIC "-//W3C//DTD SVG 20010904//EN"
 "http://www.w3.org/TR/2001/REC-SVG-20010904/DTD/svg10.dtd">
<svg version="1.0" xmlns="http://www.w3.org/2000/svg"
 width="512.000000pt" height="512.000000pt" viewBox="0 0 512.000000 512.000000"
 preserveAspectRatio="xMidYMid meet">

<g transform="translate(0.000000,512.000000) scale(0.100000,-0.100000)"
fill="#000000" stroke="none">
<path d="M4270 4434 c-198 -52 -353 -215 -394 -414 l-13 -65 -306 -3 -306 -2
-323 -304 -323 -303 -5 357 c-5 374 -5 370 -50 407 -12 10 -263 12 -1103 13
-1200 0 -1125 4 -1196 -63 -18 -18 -42 -50 -52 -72 -18 -38 -19 -95 -19 -1351
0 -1483 -6 -1369 80 -1455 60 -60 119 -79 247 -79 l93 0 0 -28 c0 -71 60 -92
130 -46 l40 27 40 -27 c70 -46 130 -25 130 46 l0 28 800 2 800 3 27 28 28 27
5 309 5 308 323 -303 323 -304 306 -2 306 -3 13 -65 c71 -350 461 -534 778
-368 78 41 183 146 224 224 89 170 79 387 -25 543 -73 112 -179 189 -307 226
-70 20 -210 23 -276 5 -123 -33 -246 -121 -315 -226 -43 -64 -84 -173 -85
-221 l0 -33 -295 0 -294 0 -340 317 -340 318 0 318 -1 317 635 0 635 0 0 -29
c0 -49 38 -155 78 -217 80 -123 219 -218 356 -243 79 -15 127 -14 211 4 246
52 425 273 425 525 0 188 -109 376 -271 468 -66 37 -191 72 -259 72 -183 0
-359 -97 -462 -254 -40 -62 -78 -167 -78 -217 l0 -29 -635 0 -635 0 1 318 0
317 340 318 340 317 294 0 295 0 0 -32 c1 -49 42 -158 85 -222 69 -105 192
-193 315 -226 66 -18 206 -15 276 5 128 37 234 114 307 226 104 156 114 373
25 543 -43 82 -147 185 -226 225 -116 59 -264 76 -382 45z m290 -93 c215 -82
341 -315 286 -528 -42 -165 -145 -279 -302 -334 -48 -17 -77 -20 -159 -17 -90
3 -107 7 -176 39 -99 48 -170 118 -218 218 -35 74 -36 79 -36 196 0 114 2 123
32 188 58 122 176 220 308 254 70 18 197 10 265 -16z m-2045 -323 c3 -13 4
-655 3 -1428 l-3 -1405 -814 -3 c-581 -1 -818 -5 -828 -13 -7 -6 -13 -27 -13
-46 l0 -34 -37 26 c-47 32 -66 31 -109 -1 l-34 -26 0 35 c0 19 -6 39 -13 45
-6 6 -73 12 -148 14 -128 3 -138 4 -177 31 -63 41 -82 87 -82 200 0 89 1 94
28 119 56 53 88 62 225 66 l127 4 0 1219 0 1219 935 0 935 0 5 -22z m1994
-1013 c248 -59 400 -312 336 -560 -46 -176 -190 -306 -372 -337 -299 -50 -573
223 -523 521 16 98 59 182 128 251 119 119 270 163 431 125z m16 -1357 c145
-36 281 -173 319 -323 89 -339 -220 -648 -559 -559 -219 56 -367 280 -335 505
39 274 300 445 575 377z"/>
<path d="M1025 3621 c-11 -5 -29 -19 -40 -31 -19 -21 -20 -36 -20 -247 l0
-225 33 -29 32 -29 545 0 c400 0 551 3 570 12 50 23 55 48 55 278 0 126 -4
219 -10 231 -27 49 -32 49 -607 48 -296 0 -547 -4 -558 -8z"/>
</g>
</svg>
