<?xml version="1.0" standalone="no"?>
<!DOCTYPE svg PUBLIC "-//W3C//DTD SVG 20010904//EN"
 "http://www.w3.org/TR/2001/REC-SVG-20010904/DTD/svg10.dtd">
<svg version="1.0" xmlns="http://www.w3.org/2000/svg"
 width="512.000000pt" height="512.000000pt" viewBox="0 0 512.000000 512.000000"
 preserveAspectRatio="xMidYMid meet">

<g transform="translate(0.000000,512.000000) scale(0.100000,-0.100000)"
fill="#000000" stroke="none">
<path d="M2464 5025 c-84 -18 -146 -52 -268 -145 -217 -165 -244 -176 -491
-190 -93 -6 -192 -15 -220 -22 -73 -16 -155 -60 -216 -117 l-54 -50 54 -54 53
-55 31 34 c37 44 99 80 157 93 25 6 124 15 221 21 270 16 299 27 520 191 171
128 196 141 285 147 104 7 154 -14 293 -118 259 -194 284 -204 577 -224 226
-15 277 -30 347 -100 55 -55 72 -97 122 -301 63 -262 76 -284 277 -480 185
-181 210 -220 210 -333 -1 -82 -10 -109 -101 -287 -120 -235 -128 -284 -91
-582 15 -122 18 -173 10 -212 -23 -124 -92 -194 -260 -266 -63 -27 -117 -50
-119 -52 -3 -2 44 -53 104 -113 60 -60 110 -108 112 -106 2 2 -8 28 -22 60
-28 62 -30 76 -14 76 5 0 44 17 85 37 142 69 237 192 264 343 10 55 9 95 -11
268 -19 172 -21 212 -11 260 6 32 52 139 102 242 106 218 122 282 102 402 -23
130 -57 183 -238 360 -184 181 -197 202 -239 378 -67 282 -82 321 -162 405
-106 110 -190 140 -437 154 -97 6 -197 16 -223 21 -65 15 -135 56 -273 160
-137 103 -198 136 -289 156 -80 17 -107 16 -187 -1z"/>
<path d="M2505 4303 c-268 -14 -557 -130 -733 -296 l-32 -31 47 -48 c26 -26
51 -48 55 -48 5 0 33 20 62 44 223 181 558 265 843 211 570 -108 948 -650 848
-1216 -29 -167 -109 -345 -210 -470 l-53 -67 53 -52 52 -52 45 54 c137 162
223 346 264 563 25 134 15 376 -19 506 -149 556 -655 929 -1222 902z"/>
<path d="M2267 3857 l-258 -151 54 -54 54 -54 221 127 222 126 50 -28 c27 -15
50 -30 50 -33 0 -3 -67 -43 -148 -90 -81 -46 -185 -106 -231 -133 l-83 -50 54
-54 54 -54 255 146 c237 136 256 145 281 134 16 -6 28 -14 28 -18 0 -3 -117
-74 -259 -156 l-260 -150 52 -52 c28 -29 54 -53 58 -53 4 0 129 70 279 156
150 85 277 157 284 160 6 2 33 -10 59 -27 l49 -30 -283 -165 c-155 -90 -286
-164 -291 -164 -5 0 -21 7 -36 17 -15 9 8 -19 50 -62 l77 -79 274 157 c150 86
277 157 280 157 4 0 7 -148 7 -328 l0 -328 -70 -40 -69 -40 54 -54 54 -53 56
29 c31 16 71 42 90 57 l35 28 0 449 c0 412 -1 449 -17 468 -10 11 -183 115
-386 231 -279 160 -375 211 -400 210 -22 0 -109 -45 -290 -152z"/>
</g>
</svg>
