<?xml version="1.0" standalone="no"?>
<!DOCTYPE svg PUBLIC "-//W3C//DTD SVG 20010904//EN"
 "http://www.w3.org/TR/2001/REC-SVG-20010904/DTD/svg10.dtd">
<svg version="1.0" xmlns="http://www.w3.org/2000/svg"
 width="512.000000pt" height="512.000000pt" viewBox="0 0 512.000000 512.000000"
 preserveAspectRatio="xMidYMid meet">
<metadata>
Created by potrace 1.16, written by Peter Selinger 2001-2019
</metadata>
<g transform="translate(0.000000,512.000000) scale(0.100000,-0.100000)"
fill="#000000" stroke="none">
<path d="M2925 5108 c-87 -32 -163 -110 -223 -227 -65 -126 -100 -258 -149
-556 l-28 -173 -42 -7 c-45 -6 -1072 -395 -1109 -419 -37 -25 -84 -77 -103
-115 -52 -103 -1064 -2562 -1072 -2606 -11 -60 1 -136 30 -193 40 -78 103
-121 294 -200 97 -39 188 -72 202 -72 59 0 96 83 58 128 -10 12 -92 51 -183
88 -216 89 -250 119 -241 221 1 12 238 593 527 1290 430 1037 531 1274 557
1299 26 26 128 68 534 223 276 105 507 191 513 191 9 0 10 -18 5 -62 -9 -89
-12 -96 -48 -104 -81 -17 -163 -87 -188 -160 -7 -22 -13 -66 -13 -99 1 -143
109 -248 254 -248 75 0 120 16 174 63 59 53 81 102 81 190 0 88 -19 134 -77
189 l-38 37 13 93 12 92 45 -30 c25 -17 55 -45 68 -64 12 -19 126 -257 252
-530 177 -383 230 -506 230 -537 0 -29 -131 -355 -511 -1272 -280 -678 -521
-1256 -535 -1285 -29 -61 -75 -94 -131 -95 -28 0 -174 56 -524 201 -268 110
-491 201 -497 201 -41 0 -82 -45 -82 -90 0 -45 46 -68 525 -266 449 -185 485
-198 554 -202 41 -2 90 1 110 6 60 19 130 69 160 117 16 25 75 158 132 295 57
137 107 246 111 242 4 -4 52 -104 108 -222 141 -300 140 -298 183 -337 64 -57
119 -77 212 -77 59 1 92 6 125 21 126 57 1485 695 1537 721 80 41 114 71 146
130 36 66 50 144 38 209 -12 63 -823 1801 -853 1826 -46 39 -128 1 -128 -59 0
-14 185 -420 411 -902 448 -957 436 -926 387 -999 -24 -36 -72 -60 -820 -411
-438 -204 -809 -375 -825 -378 -38 -8 -115 25 -137 58 -22 34 -299 629 -299
642 0 6 171 421 379 921 l379 910 0 95 0 95 -208 448 c-115 247 -207 451 -204
453 9 9 523 -160 553 -182 23 -17 56 -76 138 -251 59 -125 114 -236 123 -245
23 -25 87 -24 113 2 11 11 20 33 20 50 0 39 -208 483 -249 532 -17 21 -51 49
-74 62 -23 13 -188 70 -367 126 -179 56 -326 103 -328 105 -1 1 36 64 83 141
106 171 216 385 249 486 36 105 43 197 22 278 -21 82 -55 131 -119 172 -46 29
-60 33 -132 35 -44 1 -93 -3 -110 -9z m149 -160 c97 -43 83 -192 -37 -431 -66
-130 -193 -349 -235 -404 l-17 -23 -47 22 c-31 14 -48 28 -48 40 0 37 60 367
84 462 66 256 184 388 300 334z m-508 -1322 c40 -40 45 -80 14 -118 -50 -64
-136 -54 -167 19 -14 35 -14 40 3 73 36 67 98 78 150 26z"/>
<path d="M1785 2824 c-215 -31 -379 -110 -517 -247 -161 -161 -242 -365 -241
-602 3 -387 243 -699 621 -808 102 -29 332 -31 432 -3 170 46 340 157 445 289
59 74 115 173 115 204 0 27 -28 63 -58 74 -44 17 -78 -6 -114 -75 -41 -76
-182 -221 -258 -264 -92 -51 -204 -84 -310 -89 -126 -7 -218 13 -340 73 -202
100 -338 294 -370 528 -30 215 68 458 245 606 59 49 208 123 285 141 76 18
231 16 310 -4 280 -72 496 -324 517 -602 2 -38 9 -82 15 -97 19 -51 101 -60
133 -15 31 44 11 218 -40 352 -94 252 -313 447 -576 514 -77 20 -237 33 -294
25z"/>
<path d="M1932 2420 c-9 -11 -22 -37 -28 -57 -10 -35 -13 -37 -74 -50 -151
-30 -221 -168 -154 -302 31 -62 73 -92 162 -117 72 -19 101 -48 83 -83 -17
-31 -40 -32 -121 -7 -67 22 -75 27 -82 55 -15 57 -83 80 -129 42 -20 -16 -24
-28 -24 -79 0 -79 34 -124 116 -154 4 -2 3 -24 -3 -49 -19 -81 7 -123 75 -121
38 1 64 26 79 75 6 21 17 40 22 42 6 2 37 8 70 15 121 25 188 140 152 262 -22
76 -69 117 -174 152 -44 15 -83 34 -86 42 -11 28 -6 43 17 59 21 13 30 12 105
-11 73 -22 82 -27 82 -49 0 -33 37 -65 75 -65 69 0 102 77 69 159 -16 38 -28
50 -67 70 -40 20 -48 27 -43 45 18 66 18 91 -4 119 -27 34 -90 38 -118 7z"/>
<path d="M3790 2230 c-11 -11 -20 -33 -20 -50 0 -19 93 -230 247 -557 231
-490 250 -527 280 -539 51 -22 113 16 113 69 0 23 -485 1055 -507 1079 -23 25
-87 24 -113 -2z"/>
<path d="M3451 2044 c-12 -15 -21 -35 -21 -45 0 -23 485 -1057 507 -1081 23
-25 87 -24 113 2 11 11 20 33 20 51 0 35 -482 1067 -507 1087 -9 6 -34 12 -54
12 -29 0 -42 -6 -58 -26z"/>
</g>
</svg>
