<?xml version="1.0" standalone="no"?>
<!DOCTYPE svg PUBLIC "-//W3C//DTD SVG 20010904//EN"
 "http://www.w3.org/TR/2001/REC-SVG-20010904/DTD/svg10.dtd">
<svg version="1.0" xmlns="http://www.w3.org/2000/svg"
 width="512.000000pt" height="512.000000pt" viewBox="0 0 512.000000 512.000000"
 preserveAspectRatio="xMidYMid meet">

<g transform="translate(0.000000,512.000000) scale(0.100000,-0.100000)"
fill="#000000" stroke="none">
<path d="M1281 5104 c-74 -20 -142 -59 -197 -113 -59 -57 -87 -102 -116 -183
l-23 -63 -3 -722 -3 -723 -312 0 c-351 0 -366 -3 -399 -70 -17 -32 -18 -89
-18 -750 0 -661 1 -718 18 -750 33 -67 48 -70 399 -70 l312 0 3 -642 c3 -640
3 -643 26 -706 55 -153 166 -257 317 -297 44 -11 112 -15 258 -15 197 0 198 0
222 25 30 29 32 64 6 96 -19 24 -23 24 -238 29 -204 5 -221 7 -263 29 -58 30
-116 85 -143 136 -22 40 -22 45 -25 693 l-3 652 106 0 105 0 0 -342 c0 -325 1
-345 20 -376 11 -18 32 -37 46 -42 38 -15 2019 -13 2047 1 51 26 57 45 57 192
l0 137 125 0 c217 0 225 10 225 260 l0 170 95 0 96 0 -3 -652 c-3 -608 -4
-655 -21 -686 -30 -55 -88 -112 -141 -140 l-51 -27 -888 -5 -889 -5 -19 -24
c-26 -32 -24 -67 6 -96 l24 -25 868 0 c946 0 928 -1 1035 57 55 30 130 101
164 155 13 20 34 65 46 100 23 63 23 66 26 706 l3 642 312 0 c351 0 366 3 399
70 17 32 18 89 18 750 0 661 -1 718 -18 750 -33 67 -48 70 -399 70 l-312 0 -3
723 -3 722 -23 63 c-55 153 -166 257 -317 297 -50 13 -152 15 -656 15 -568 0
-598 -1 -620 -19 -28 -23 -32 -83 -6 -109 16 -16 66 -17 635 -22 l617 -5 51
-27 c53 -28 111 -85 141 -140 17 -31 18 -81 21 -765 l3 -733 -96 0 -95 0 0
111 c0 61 -5 120 -11 132 -16 31 -439 455 -471 473 -23 12 -151 14 -818 14
-563 0 -798 -3 -813 -11 -51 -26 -57 -45 -57 -191 l0 -138 -125 0 c-213 0
-225 -13 -225 -245 l0 -145 -105 0 -106 0 3 733 c3 729 3 732 25 772 27 51 85
106 143 136 l45 24 486 5 c461 5 488 6 508 24 31 28 28 79 -5 105 -26 21 -36
21 -498 20 -379 0 -482 -3 -525 -15z m1959 -1424 c0 -187 1 -201 20 -220 19
-19 33 -20 220 -20 l200 0 0 -70 0 -70 -634 0 c-626 0 -634 0 -660 -21 -33
-26 -36 -79 -6 -109 20 -20 33 -20 1195 -20 l1175 0 0 -670 0 -670 -835 0
c-822 0 -835 0 -855 -20 -30 -30 -27 -83 6 -109 26 -20 38 -21 321 -21 l294 0
-3 -137 -3 -138 -932 -3 -933 -2 0 140 0 140 489 0 c451 0 490 1 510 18 32 26
37 72 11 105 l-21 27 -1217 2 -1217 3 0 665 0 665 877 3 877 2 21 27 c26 33
21 79 -11 106 -18 14 -43 17 -170 17 l-149 0 0 290 0 290 715 0 715 0 0 -200z
m245 0 l90 -90 -93 0 -92 0 0 90 c0 50 1 90 3 90 1 0 43 -40 92 -90z m-1827
-262 l3 -118 -101 0 -100 0 0 113 c0 63 3 117 7 121 4 4 48 5 98 4 l90 -3 3
-117z m2 -1938 l0 -180 29 -32 29 -33 806 -3 806 -2 0 -95 0 -95 -935 0 -935
0 0 310 0 310 100 0 100 0 0 -180z"/>
<path d="M639 2892 l-24 -20 0 -392 0 -392 24 -19 c31 -26 83 -25 107 2 16 18
20 42 24 151 l5 129 130 -148 c119 -135 134 -148 167 -151 47 -4 78 24 78 71
0 28 -16 52 -100 148 -55 63 -100 116 -100 119 0 3 20 13 44 23 50 21 120 91
142 142 20 49 18 151 -5 201 -23 51 -75 104 -127 130 -32 16 -65 20 -190 22
-137 3 -152 2 -175 -16z m301 -147 c32 -17 60 -61 60 -95 0 -34 -31 -78 -66
-95 -19 -9 -60 -15 -98 -15 l-66 0 0 110 0 110 70 0 c44 0 82 -6 100 -15z"/>
<path d="M1282 2887 c-22 -23 -22 -27 -22 -408 l0 -386 23 -21 c22 -21 32 -22
205 -22 169 0 183 1 202 20 30 30 27 83 -6 109 -24 19 -40 21 -150 21 l-124 0
0 100 0 100 100 0 c113 0 156 14 166 55 19 77 -25 105 -166 105 l-100 0 0 100
0 100 124 0 c110 0 126 2 150 21 33 26 36 79 6 109 -19 19 -33 20 -203 20
-179 0 -184 -1 -205 -23z"/>
<path d="M1834 2889 c-18 -20 -19 -42 -19 -411 l0 -390 24 -19 c35 -28 85 -25
110 7 19 24 21 40 21 155 l0 129 93 0 c106 0 168 22 226 81 142 142 87 386
-102 456 -19 7 -94 12 -183 12 -141 1 -152 0 -170 -20z m311 -143 c64 -27 91
-104 57 -165 -28 -51 -73 -71 -159 -71 l-73 0 0 125 0 125 70 0 c39 0 86 -6
105 -14z"/>
<path d="M2730 2890 c-176 -65 -290 -226 -290 -410 0 -186 116 -348 295 -411
49 -17 77 -20 155 -17 121 5 203 40 286 122 212 213 149 571 -123 699 -60 28
-80 32 -168 34 -81 3 -110 0 -155 -17z m227 -145 c109 -32 193 -147 193 -264
0 -119 -84 -234 -195 -267 -134 -38 -263 16 -330 138 -25 45 -29 64 -29 128 0
57 5 85 22 116 70 135 198 191 339 149z"/>
<path d="M3420 2890 c-19 -19 -20 -33 -20 -410 0 -377 1 -391 20 -410 28 -28
81 -26 108 3 19 20 22 36 24 152 l3 129 134 -153 133 -152 41 3 c50 4 83 41
73 82 -3 14 -51 77 -106 140 -55 63 -100 117 -100 119 0 3 10 7 23 11 50 12
116 65 146 117 77 136 29 293 -111 363 -49 24 -61 26 -200 26 -135 0 -150 -2
-168 -20z m300 -145 c40 -20 60 -53 60 -95 0 -73 -55 -110 -165 -110 l-65 0 0
110 0 110 70 0 c43 0 82 -6 100 -15z"/>
<path d="M4000 2890 c-30 -30 -27 -83 6 -109 21 -17 41 -21 95 -21 l68 0 3
-334 c3 -312 4 -335 22 -355 26 -29 86 -29 112 0 18 20 19 43 22 355 l3 334
69 0 c57 0 73 4 94 23 36 32 39 74 6 107 -19 19 -33 20 -250 20 -217 0 -231
-1 -250 -20z"/>
<path d="M2136 4799 c-19 -15 -26 -30 -26 -54 0 -24 7 -39 26 -54 26 -20 39
-21 299 -21 252 0 275 1 296 19 17 13 23 29 23 56 0 27 -6 43 -23 56 -21 18
-44 19 -296 19 -260 0 -273 -1 -299 -21z"/>
<path d="M2889 4801 c-49 -40 -18 -131 46 -131 38 0 75 37 75 75 0 62 -72 96
-121 56z"/>
</g>
</svg>
