<?xml version="1.0" standalone="no"?>
<!DOCTYPE svg PUBLIC "-//W3C//DTD SVG 20010904//EN"
 "http://www.w3.org/TR/2001/REC-SVG-20010904/DTD/svg10.dtd">
<svg version="1.0" xmlns="http://www.w3.org/2000/svg"
 width="512.000000pt" height="512.000000pt" viewBox="0 0 512.000000 512.000000"
 preserveAspectRatio="xMidYMid meet">
<metadata>
Created by potrace 1.16, written by Peter Selinger 2001-2019
</metadata>
<g transform="translate(0.000000,512.000000) scale(0.100000,-0.100000)"
fill="#000000" stroke="none">
<path d="M1528 5021 c-74 -24 -144 -69 -200 -129 -90 -96 -128 -194 -128 -329
l0 -83 -105 0 c-257 0 -497 -98 -690 -282 -146 -139 -231 -277 -292 -474 -26
-84 -27 -100 -27 -284 0 -184 1 -200 27 -284 58 -186 130 -309 261 -444 130
-135 277 -223 463 -278 69 -20 118 -27 226 -31 l137 -6 0 -278 0 -279 -80 0
-80 0 0 140 c0 127 -2 142 -20 160 -13 13 -33 20 -60 20 -38 0 -56 -14 -322
-241 -156 -133 -291 -250 -300 -261 -23 -26 -23 -90 -1 -116 10 -11 145 -128
301 -261 266 -227 284 -241 322 -241 27 0 47 7 60 20 18 18 20 33 20 160 l0
140 80 0 80 0 0 -444 c0 -408 2 -449 19 -505 46 -147 172 -272 320 -315 48
-14 168 -16 1021 -16 1055 0 1017 -2 1120 58 152 88 240 240 240 416 l0 83
138 6 c107 4 156 11 226 31 193 58 334 144 474 291 138 146 228 317 267 514
26 128 17 365 -19 485 -57 189 -141 329 -279 463 -135 131 -260 204 -443 259
-71 21 -117 27 -226 31 l-138 6 0 238 0 239 80 0 80 0 0 -140 c0 -127 2 -142
20 -160 13 -13 33 -20 60 -20 38 0 56 14 322 241 156 133 291 250 301 261 22
26 22 90 0 116 -10 11 -145 128 -301 261 -266 227 -284 241 -322 241 -27 0
-47 -7 -60 -20 -18 -18 -20 -33 -20 -160 l0 -140 -80 0 -80 0 0 484 c0 447 -1
489 -19 545 -46 147 -172 272 -320 315 -48 14 -168 16 -1025 15 -913 0 -974
-1 -1028 -18z m1627 -221 l-80 -80 -515 0 -515 0 -80 80 -80 80 675 0 675 0
-80 -80z m-1355 -85 l156 -155 604 0 604 0 158 157 158 157 53 -17 c95 -30
168 -100 205 -199 14 -37 17 -108 20 -510 l3 -468 -540 0 c-528 0 -541 0 -561
-20 -19 -19 -20 -33 -20 -220 0 -187 1 -201 20 -220 20 -20 33 -20 560 -20
l540 0 -2 -250 -3 -251 -88 -29 c-168 -57 -296 -139 -423 -273 -193 -203 -284
-432 -284 -717 0 -285 91 -514 284 -717 127 -134 254 -216 423 -273 l88 -30
-2 -73 c-1 -41 -6 -92 -12 -115 -24 -88 -121 -186 -209 -212 -20 -6 -85 -14
-144 -17 l-108 -6 0 72 c0 83 -17 131 -63 180 -69 73 -49 71 -657 71 -608 0
-588 2 -657 -71 -46 -49 -63 -97 -63 -180 l0 -72 -107 6 c-60 3 -125 11 -145
17 -88 25 -179 116 -210 208 -8 26 -13 167 -15 465 l-4 427 540 0 c528 0 541
0 561 20 19 19 20 33 20 220 0 187 -1 201 -20 220 -20 20 -33 20 -560 20
l-540 0 2 291 3 291 70 23 c173 55 309 140 436 272 195 202 288 435 289 721 0
286 -90 515 -284 719 -127 134 -255 216 -423 273 -84 28 -88 31 -91 60 -5 50
17 168 39 212 30 59 102 124 162 147 29 11 59 20 67 20 8 1 84 -69 170 -154z
m-460 -429 c96 -25 256 -107 332 -170 143 -119 255 -298 298 -476 27 -116 27
-284 0 -399 -129 -538 -719 -825 -1217 -591 -191 89 -334 232 -423 422 -140
300 -96 661 113 918 144 177 369 298 592 319 90 8 223 -2 305 -23z m3083 -705
c87 -74 157 -138 157 -141 0 -3 -75 -71 -167 -150 l-168 -143 -5 92 c-4 77 -8
95 -24 107 -17 12 -132 14 -718 14 l-698 0 0 80 0 80 700 0 c821 0 740 -14
740 125 0 69 3 84 13 78 8 -4 84 -68 170 -142z m-203 -1056 c99 -25 256 -105
335 -172 392 -330 424 -910 71 -1281 -258 -271 -692 -342 -1024 -167 -229 121
-393 330 -452 575 -27 116 -27 284 0 400 43 178 155 357 298 476 76 63 236
145 332 170 131 34 306 34 440 -1z m-3316 -831 c17 -12 132 -14 718 -14 l698
0 0 -80 0 -80 -698 0 c-586 0 -701 -2 -718 -14 -16 -12 -20 -30 -24 -107 l-5
-92 -165 141 c-91 78 -165 146 -165 152 0 6 74 74 165 152 l165 141 5 -92 c4
-77 8 -95 24 -107z m2160 -1308 c36 -15 56 -54 56 -112 l0 -34 -560 0 -560 0
0 34 c0 56 20 97 54 112 46 20 962 20 1010 0z"/>
<path d="M2720 4240 l0 -80 320 0 320 0 0 80 0 80 -320 0 -320 0 0 -80z"/>
<path d="M2240 3920 l0 -80 480 0 480 0 0 80 0 80 -480 0 -480 0 0 -80z"/>
<path d="M1920 1120 l0 -80 480 0 480 0 0 80 0 80 -480 0 -480 0 0 -80z"/>
<path d="M2400 815 l0 -85 320 0 320 0 0 85 0 85 -320 0 -320 0 0 -85z"/>
<path d="M1040 4076 l0 -84 -29 -7 c-41 -9 -116 -65 -151 -112 -42 -57 -60
-115 -60 -194 0 -90 28 -165 84 -223 58 -59 110 -84 203 -97 43 -6 91 -18 108
-28 133 -77 78 -281 -75 -281 -74 0 -150 64 -150 128 0 21 -4 22 -85 22 l-85
0 0 -34 c0 -46 24 -110 60 -159 35 -47 110 -103 151 -112 l29 -7 0 -84 0 -84
80 0 80 0 0 84 0 84 29 7 c41 9 116 65 151 112 42 57 60 115 60 194 0 90 -28
165 -84 223 -58 59 -110 84 -203 97 -43 6 -91 18 -108 28 -133 77 -78 281 75
281 74 0 150 -64 150 -127 0 -22 4 -23 85 -23 l85 0 0 34 c0 46 -24 110 -60
159 -35 47 -110 103 -151 112 l-29 7 0 84 0 84 -80 0 -80 0 0 -84z"/>
<path d="M3920 2316 l0 -84 -29 -7 c-41 -9 -116 -65 -151 -112 -42 -57 -60
-115 -60 -194 0 -90 28 -165 84 -223 58 -59 110 -84 203 -97 43 -6 91 -18 108
-28 133 -77 78 -281 -75 -281 -74 0 -150 64 -150 128 0 21 -4 22 -85 22 l-85
0 0 -34 c0 -46 24 -110 60 -159 35 -47 110 -103 151 -112 l29 -7 0 -84 0 -84
80 0 80 0 0 84 0 84 29 7 c41 9 116 65 151 112 42 57 60 115 60 194 0 90 -28
165 -84 223 -58 59 -110 84 -203 97 -43 6 -91 18 -108 28 -133 77 -78 281 75
281 74 0 150 -64 150 -127 0 -22 4 -23 85 -23 l85 0 0 34 c0 46 -24 110 -60
159 -35 47 -110 103 -151 112 l-29 7 0 84 0 84 -80 0 -80 0 0 -84z"/>
</g>
</svg>
